<svg width="95" height="77" viewBox="0 0 95 77" fill="none" xmlns="http://www.w3.org/2000/svg">
<path d="M30.8793 56.475C30.3793 56.475 29.8793 56.457 29.3793 56.43L12.6393 30.93C12.6393 30.921 12.6303 30.921 12.6303 30.912L5.96432 20.766L1.47332 13.93C0.585097 12.5734 0.07987 11.0021 0.0110427 9.38201C-0.0577845 7.76197 0.312337 6.15342 1.0823 4.72638C1.85226 3.29934 2.99346 2.10683 4.38527 1.27488C5.77709 0.44293 7.36782 0.00245174 8.98932 0H27.9893C26.2087 3.63257 25.2814 7.62391 25.2783 11.6694C25.2752 15.715 26.1963 19.7077 27.9713 23.343C28.0343 23.468 28.0973 23.602 28.1713 23.727C28.2163 23.808 28.2613 23.879 28.3143 23.96L31.3383 28.568L31.3563 28.586L40.5723 42.606C40.5813 42.615 40.5903 42.633 40.5993 42.642L43.6053 47.222C44.1396 48.0489 44.9302 48.6778 45.8561 49.0123C46.7819 49.3469 47.7919 49.3685 48.7313 49.074L48.732 49.0707L48.734 49.068L48.7369 49.0663L48.7403 49.066C49.0892 48.9592 49.4232 48.8086 49.7343 48.618C47.2633 51.1032 44.3261 53.0764 41.0911 54.4245C37.8561 55.7726 34.3869 56.4691 30.8823 56.474L30.8793 56.475Z" fill="url(#paint0_linear_1_44)"/>
<path d="M27.9714 23.344C26.1926 19.7156 25.2712 15.727 25.2784 11.686C25.2767 10.3077 25.3844 8.93132 25.6004 7.56999C25.602 7.54252 25.608 7.51549 25.6184 7.48999C26.0245 4.8879 26.824 2.36271 27.9894 0.000985216H28.4104C28.7331 0.000523326 29.0557 0.0185528 29.3764 0.0549852H29.4124C31.9075 0.302599 34.2215 1.46893 35.9047 3.32736C37.5879 5.18579 38.5202 7.6036 38.5204 10.111V16.938H32.1054C30.9953 16.9369 29.9235 17.3437 29.0938 18.0812C28.2641 18.8187 27.7344 19.8354 27.6054 20.938C27.5024 21.7584 27.6291 22.5913 27.9714 23.344Z" fill="url(#paint1_linear_1_44)"/>
<path d="M39.871 72.418L29.376 56.43C29.876 56.457 30.376 56.475 30.876 56.475C34.3806 56.4701 37.8498 55.7736 41.0848 54.4255C44.3198 53.0774 47.2569 51.1042 49.728 48.619C50.3127 48.2707 50.8087 47.7915 51.1769 47.219L51.866 46.173C52.7332 45.0601 53.5082 43.8781 54.183 42.639C54.1969 42.6191 54.2089 42.5981 54.219 42.576L66.441 23.957C66.8924 23.2734 67.1498 22.4802 67.186 21.6618C67.2221 20.8434 67.0356 20.0305 66.6462 19.3098C66.2569 18.5891 65.6792 17.9875 64.975 17.5691C64.2707 17.1507 63.4661 16.9312 62.647 16.934H56.232V10.111C56.2323 7.42973 57.2975 4.85836 59.1934 2.96243C61.0894 1.06649 63.6607 0.00124838 66.342 0.000983214H85.766C86.6951 -0.00403514 87.6191 0.137711 88.504 0.420984C89.6417 0.771595 90.6933 1.35685 91.5909 2.13899C91.6909 2.21999 91.7789 2.29999 91.8769 2.38099C91.9031 2.39899 91.9273 2.41978 91.949 2.44299C93.4903 3.89309 94.4695 5.84138 94.7134 7.94355C94.9574 10.0457 94.4503 12.1665 93.282 13.931L57.9139 67.831L54.899 72.42C54.079 73.6634 52.9632 74.6839 51.6517 75.3899C50.3401 76.096 48.8739 76.4654 47.3844 76.4652C45.8949 76.465 44.4288 76.0952 43.1175 75.3888C41.8062 74.6824 40.6906 73.6617 39.871 72.418Z" fill="url(#paint2_linear_1_44)"/>
<path d="M51.8691 46.177L54.1862 42.643C53.5113 43.8821 52.7364 45.064 51.8691 46.177Z" fill="url(#paint3_linear_1_44)"/>
<g style="mix-blend-mode:screen" opacity="0.25">
<g style="mix-blend-mode:screen" opacity="0.25">
<path d="M47.3957 74.682C46.1984 74.6925 45.0178 74.4003 43.9636 73.8324C42.9094 73.2646 42.0158 72.4396 41.3657 71.434L33.7607 59.848C40.7397 63.874 52.4157 64.053 70.2287 45.819L53.4087 71.443C52.7611 72.4464 51.8702 73.2695 50.8188 73.8359C49.7674 74.4022 48.5899 74.6933 47.3957 74.682Z" fill="white"/>
</g>
</g>
<g style="mix-blend-mode:multiply" opacity="0.3">
<g style="mix-blend-mode:multiply" opacity="0.3">
<path d="M63.4023 17.355L63.5023 17.364H63.4223C63.4113 17.355 63.4113 17.355 63.4023 17.355Z" fill="black"/>
</g>
</g>
<g style="mix-blend-mode:multiply" opacity="0.3">
<g style="mix-blend-mode:multiply" opacity="0.3">
<path d="M65.96 23.6391L65.916 23.7281L65.934 23.6751C65.943 23.6661 65.953 23.6481 65.96 23.6391Z" fill="black"/>
</g>
</g>
<g style="mix-blend-mode:multiply" opacity="0.3">
<g style="mix-blend-mode:multiply" opacity="0.3">
<path d="M30.8799 56.475C31.9269 56.296 32.9739 56.152 34.0029 55.929C35.0319 55.706 36.0599 55.49 37.0619 55.177C38.0819 54.909 39.0669 54.524 40.0509 54.184C41.0259 53.799 41.9918 53.415 42.9228 52.941C43.8599 52.4869 44.7682 51.9759 45.6429 51.411C46.5178 50.8591 47.3547 50.2491 48.1479 49.585C48.3479 49.415 48.5329 49.245 48.7289 49.075C48.7289 49.0738 48.7291 49.0727 48.7295 49.0717C48.73 49.0706 48.7307 49.0697 48.7316 49.0689C48.7324 49.0682 48.7334 49.0676 48.7345 49.0673C48.7356 49.0669 48.7367 49.0668 48.7378 49.067C49.0867 48.9601 49.4207 48.8096 49.7319 48.619C50.3167 48.2707 50.8127 47.7914 51.1809 47.219L51.8699 46.173L54.1869 42.639C54.2008 42.6191 54.2128 42.598 54.2229 42.576L66.4449 23.957C66.8963 23.2734 67.1537 22.4801 67.1899 21.6618C67.226 20.8434 67.0395 20.0305 66.6501 19.3098C66.2608 18.5891 65.6832 17.9875 64.9789 17.5691C64.2747 17.1507 63.47 16.9312 62.6509 16.934H56.2359V10.111C56.3519 12.311 56.4059 14.495 56.4779 16.687C58.8219 16.598 61.1568 16.562 63.5008 16.517H63.5459L63.5989 16.526C63.9898 16.628 64.3704 16.7659 64.7359 16.938C65.0984 17.1056 65.4432 17.3093 65.7649 17.546C66.0942 17.7932 66.3959 18.0752 66.6649 18.387C66.7909 18.548 66.9069 18.727 67.0229 18.897C67.136 19.0755 67.2317 19.2643 67.3089 19.461C67.4007 19.6523 67.4699 19.8536 67.5149 20.061C67.5771 20.2619 67.6164 20.4692 67.6319 20.679C67.6565 20.8837 67.6682 21.0898 67.6669 21.296L67.6319 21.913C67.5786 22.3118 67.4978 22.7064 67.3899 23.094L66.9779 24.204L66.9689 24.23L66.9339 24.284C64.6609 27.845 62.3439 31.384 60.0339 34.922L56.5339 40.222L53.0179 45.492C52.4099 46.386 51.8729 47.218 51.2109 48.158C50.4891 48.9861 49.685 49.7387 48.8108 50.404C47.9557 51.0631 47.0592 51.6666 46.1269 52.211C45.1994 52.7538 44.2404 53.2406 43.2549 53.669C42.2799 54.117 41.2769 54.474 40.2659 54.832C39.9439 54.922 39.6129 55.02 39.2909 55.101C38.5839 55.307 37.8909 55.494 37.1709 55.629C36.1419 55.879 35.0859 56.029 34.0389 56.192C32.9919 56.355 31.9359 56.376 30.8799 56.475Z" fill="black"/>
</g>
</g>
<g style="mix-blend-mode:screen" opacity="0.35">
<g style="mix-blend-mode:screen" opacity="0.35">
<path d="M57.917 67.829C59.241 65.556 60.628 63.329 61.988 61.073C63.366 58.783 64.806 56.537 66.22 54.265L70.488 47.483L74.827 40.737C77.7256 36.2537 80.6543 31.787 83.613 27.337L88.0779 20.681C89.5449 18.471 91.0839 16.288 92.5779 14.087C92.8639 13.478 93.168 12.87 93.446 12.261L93.7679 11.295C93.8888 10.9801 93.9756 10.6533 94.027 10.32L94.197 9.31996C94.224 8.98896 94.2059 8.65796 94.2239 8.31996C94.2418 7.98456 94.2149 7.64826 94.144 7.31996C94.1177 6.98471 94.0505 6.65393 93.944 6.33496C93.8553 6.00889 93.7447 5.68916 93.613 5.37796C93.461 5.07796 93.3259 4.76096 93.1479 4.47796C92.9699 4.19496 92.7809 3.90596 92.5749 3.62896C92.3419 3.36896 92.128 3.10096 91.895 2.84996C90.9114 1.85627 89.7644 1.03904 88.504 0.43396C89.1679 0.674651 89.8063 0.980475 90.41 1.34696C90.7204 1.52084 91.019 1.71492 91.304 1.92796C91.504 2.07196 91.6889 2.22796 91.8769 2.39396C91.9031 2.41196 91.9273 2.43275 91.949 2.45596C93.4903 3.90607 94.4695 5.85435 94.7134 7.95653C94.9574 10.0587 94.4503 12.1795 93.282 13.944L57.917 67.829Z" fill="white"/>
</g>
</g>
<g style="mix-blend-mode:screen" opacity="0.35">
<g style="mix-blend-mode:screen" opacity="0.35">
<path d="M38.52 15.578C38.52 15.578 38.2691 14.298 38.0901 12.378C38.0371 11.903 37.9901 11.378 37.9561 10.83C37.9221 10.282 37.8851 9.68496 37.8131 9.13896C37.7771 8.86096 37.75 8.57496 37.713 8.27996C37.632 8.00296 37.569 7.72496 37.507 7.43896L37.4071 7.00896L37.2461 6.60896C37.153 6.33091 37.0425 6.05903 36.9151 5.79496L36.5041 5.02496C36.3611 4.77496 36.173 4.55096 36.012 4.31796C35.8388 4.09055 35.6536 3.87257 35.4571 3.66496C35.275 3.44778 35.0743 3.24701 34.8571 3.06496C34.45 2.70387 34.0226 2.36632 33.5771 2.05396C33.1301 1.77596 32.7091 1.50796 32.2981 1.29296C31.8871 1.07796 31.4921 0.881956 31.1431 0.737956C30.7861 0.576956 30.472 0.451955 30.213 0.353955C29.685 0.153955 29.3721 0.0539551 29.3721 0.0539551H29.408C31.9032 0.301569 34.2172 1.4679 35.9004 3.32633C37.5836 5.18476 38.5159 7.60256 38.5161 10.11L38.52 15.578Z" fill="white"/>
</g>
</g>
<g style="mix-blend-mode:multiply" opacity="0.3">
<g style="mix-blend-mode:multiply" opacity="0.3">
<path d="M40.5692 42.6071C39.9962 41.8911 39.4412 41.1571 38.8962 40.4241C38.3412 39.6721 37.7682 38.9291 37.2232 38.1781C36.1232 36.6661 35.0572 35.1451 33.9842 33.6151C32.9282 32.0761 31.8632 30.5551 30.8432 28.9981C29.7962 27.4501 28.7762 25.8981 27.7662 24.3281L27.7482 24.2921L27.7392 24.2741C27.4392 23.6211 27.0682 22.9861 26.8172 22.3061C26.5344 21.6373 26.2894 20.9532 26.0832 20.2571C25.8604 19.567 25.6725 18.8661 25.5202 18.1571C25.3952 17.4511 25.2512 16.7441 25.1712 16.0281C25.0712 15.3121 25.0372 14.5881 25.0012 13.8721C24.9682 13.1567 24.9712 12.4401 25.0102 11.7251C25.0664 10.3247 25.264 8.93361 25.6002 7.57305C25.6018 7.54557 25.6079 7.51855 25.6182 7.49305C25.5472 8.19905 25.5382 8.90604 25.5182 9.61304C25.4982 10.3201 25.5362 11.0181 25.5802 11.7251C25.6242 12.4321 25.6972 13.1201 25.7802 13.8091C25.8802 14.5091 25.9862 15.1961 26.1202 15.8761C26.2372 16.5651 26.4202 17.2271 26.5852 17.9071C26.8002 18.5601 26.9612 19.2401 27.2122 19.8841C27.3282 20.2421 27.4622 20.5911 27.6052 20.9401C27.5024 21.7609 27.6294 22.5942 27.9722 23.3471C28.0352 23.4721 28.0982 23.6061 28.1722 23.7311C28.2172 23.8121 28.2622 23.8831 28.3152 23.9641L31.3392 28.5721L31.3572 28.5901L40.5692 42.6071Z" fill="black"/>
</g>
</g>
<g style="mix-blend-mode:screen" opacity="0.35">
<g style="mix-blend-mode:screen" opacity="0.35">
<path d="M12.6274 30.913L5.96139 20.767L1.47039 13.931C0.582167 12.5744 0.0769403 11.0031 0.00811306 9.38299C-0.0607142 7.76294 0.309407 6.1544 1.07937 4.72736C1.84933 3.30032 2.99053 2.10781 4.38235 1.27586C5.77416 0.443907 7.36488 0.0034283 8.98638 0.000976562H20.0444C20.3134 0.00997656 20.5814 0.0369765 20.8444 0.0549765C18.7064 0.224977 16.5774 0.295977 14.4384 0.420977C12.3184 0.510977 10.2154 0.590977 8.0954 0.644977C7.80811 0.703736 7.52432 0.778519 7.24538 0.868977C6.94538 0.968977 6.6544 1.07498 6.3684 1.19098C5.79471 1.41859 5.24107 1.69389 4.71337 2.01398C4.45337 2.17498 4.21339 2.36298 3.96139 2.53298C3.72039 2.72098 3.50539 2.93298 3.27239 3.12298C3.04939 3.32898 2.87239 3.57098 2.66439 3.78498C2.47069 4.01325 2.29419 4.25558 2.13637 4.50998C1.96268 4.74987 1.81581 5.00808 1.69839 5.27998C1.55709 5.54191 1.44316 5.8177 1.35839 6.10298L1.09838 6.96198L0.964382 7.85598L0.901393 8.30398L0.910396 8.76898L0.901393 9.68198C0.910393 9.99498 0.973395 10.299 1.00939 10.612L1.1094 11.412C3.1134 14.5893 5.06972 17.7893 6.97838 21.012L8.4284 23.472C8.9114 24.295 9.3944 25.109 9.8594 25.941C10.7844 27.594 11.7324 29.24 12.6274 30.913Z" fill="white"/>
</g>
</g>
<defs>
<linearGradient id="paint0_linear_1_44" x1="-819.372" y1="453.89" x2="-762.877" y2="453.89" gradientUnits="userSpaceOnUse">
<stop stop-color="#C33764"/>
<stop offset="1" stop-color="#1D2671"/>
</linearGradient>
<linearGradient id="paint1_linear_1_44" x1="-813.049" y1="439.153" x2="-799.876" y2="448.745" gradientUnits="userSpaceOnUse">
<stop stop-color="#E2316A"/>
<stop offset="1" stop-color="#1D2671"/>
</linearGradient>
<linearGradient id="paint2_linear_1_44" x1="-750.094" y1="439.289" x2="-843.97" y2="398.048" gradientUnits="userSpaceOnUse">
<stop stop-color="#08ADF8"/>
<stop offset="1" stop-color="#1976D2"/>
</linearGradient>
<linearGradient id="paint3_linear_1_44" x1="-776.934" y1="425.736" x2="-773.401" y2="425.736" gradientUnits="userSpaceOnUse">
<stop stop-color="#FCC400"/>
<stop offset="0.162" stop-color="#FBC000"/>
<stop offset="0.307" stop-color="#F8B500"/>
<stop offset="0.446" stop-color="#F3A300"/>
<stop offset="0.581" stop-color="#EB8900"/>
<stop offset="0.712" stop-color="#E26800"/>
<stop offset="0.842" stop-color="#D73F00"/>
<stop offset="0.967" stop-color="#CA1000"/>
<stop offset="1" stop-color="#C70300"/>
</linearGradient>
</defs>
</svg>
